<svg viewBox="0 0 512 512" width="512" xmlns="http://www.w3.org/2000/svg"><g id="Outline"><path d="m120 424v32a40.045 40.045 0 0 0 40 40h192a40.045 40.045 0 0 0 40-40v-216h-16v216a24.028 24.028 0 0 1 -24 24h-192a24.028 24.028 0 0 1 -24-24v-32z"/><path d="m392 72v-16a40.045 40.045 0 0 0 -40-40h-192a40.045 40.045 0 0 0 -40 40v208h16v-208a24.028 24.028 0 0 1 24-24h43.056l5.789 11.578a8 8 0 0 0 7.155 4.422h80a8 8 0 0 0 7.155-4.422l5.789-11.578h43.056a24.028 24.028 0 0 1 24 24v16z"/><path d="m464 88h-136a32.036 32.036 0 0 0 -32 32v64a32.036 32.036 0 0 0 32 32h3.056l-10.211 20.422a8 8 0 0 0 10.4 10.889l70.455-31.311h62.3a32.036 32.036 0 0 0 32-32v-64a32.036 32.036 0 0 0 -32-32zm16 96a16.019 16.019 0 0 1 -16 16h-64a8.007 8.007 0 0 0 -3.249.689l-51.623 22.944 6.027-12.055a8 8 0 0 0 -7.155-11.578h-16a16.019 16.019 0 0 1 -16-16v-64a16.019 16.019 0 0 1 16-16h136a16.019 16.019 0 0 1 16 16z"/><path d="m336 128h24v16h-24z"/><path d="m336 160h120v16h-120z"/><path d="m376 128h80v16h-80z"/><path d="m48 408h86.3l70.448 31.311a8 8 0 0 0 10.4-10.889l-10.204-20.422h3.056a32.036 32.036 0 0 0 32-32v-64a32.036 32.036 0 0 0 -32-32h-160a32.036 32.036 0 0 0 -32 32v64a32.036 32.036 0 0 0 32 32zm-16-96a16.019 16.019 0 0 1 16-16h160a16.019 16.019 0 0 1 16 16v64a16.019 16.019 0 0 1 -16 16h-16a8 8 0 0 0 -7.155 11.578l6.027 12.055-51.623-22.944a8.007 8.007 0 0 0 -3.249-.689h-88a16.019 16.019 0 0 1 -16-16z"/><path d="m104 320h96v16h-96z"/><path d="m168 352h32v16h-32z"/><path d="m56 352h96v16h-96z"/><path d="m56 320h32v16h-32z"/><path d="m192 128h16v16h-16z"/><path d="m224 128h16v16h-16z"/><path d="m240 184v-8.8a39.975 39.975 0 0 0 27.375-57.836l11.281-16.921-13.312-8.876-8.663 13a39.794 39.794 0 0 0 -24.681-8.567h-32a39.794 39.794 0 0 0 -24.681 8.557l-8.663-13-13.312 8.876 11.281 16.921a39.975 39.975 0 0 0 27.375 57.846v8.8a40.045 40.045 0 0 0 -40 40v16a8 8 0 0 0 8 8h112a8 8 0 0 0 8-8v-16a40.045 40.045 0 0 0 -40-40zm-56 48h-16v-8a24.042 24.042 0 0 1 16-22.629zm48 0h-32v-32h32zm-24-48v-8h16v8zm24-24h-32a24 24 0 0 1 0-48h32a24 24 0 0 1 0 48zm32 72h-16v-30.629a24.042 24.042 0 0 1 16 22.629z"/><path d="m352 336a48 48 0 1 0 -81.084 34.794 55.8 55.8 0 0 0 -22.916 45.206v16a8 8 0 0 0 8 8h96a8 8 0 0 0 8-8v-16a55.8 55.8 0 0 0 -22.916-45.206 47.789 47.789 0 0 0 14.916-34.794zm-8 80v8h-80v-8a39.882 39.882 0 0 1 24.8-37 8 8 0 0 0 .611-14.516 32 32 0 1 1 29.17 0 8 8 0 0 0 .619 14.516 39.882 39.882 0 0 1 24.8 37z"/><path d="m280 328h16v16h-16z"/><path d="m312 328h16v16h-16z"/></g></svg>