<?xml version="1.0" encoding="iso-8859-1"?>
<!-- Generator: Adobe Illustrator 19.0.0, SVG Export Plug-In . SVG Version: 6.00 Build 0)  -->
<svg version="1.1" id="Capa_1" xmlns="http://www.w3.org/2000/svg" xmlns:xlink="http://www.w3.org/1999/xlink" x="0px" y="0px"
	 viewBox="0 0 512.019 512.019" style="enable-background:new 0 0 512.019 512.019;" xml:space="preserve">
<g>
	<g>
		<g>
			<path d="M256,227.225L480,77.913v130.112h32v-176H368v32h75.2L256,188.825L68.8,64.025H208v-32H0v320h224v-32H52.912
				L184.48,179.577L256,227.225z M32,295.545V77.913l125.504,83.712L32,295.545z"/>
			<rect x="304" y="32.025" width="32" height="32"/>
			<rect x="240" y="32.025" width="32" height="32"/>
			<path d="M390.4,224.185c-70.68-3.439-130.764,51.071-134.203,121.751c-0.425,8.732,0.045,17.485,1.403,26.121
				c8.612,53.181,49.436,95.37,102.304,105.728c7.915,1.475,15.949,2.214,24,2.208c23.284,0.034,46.136-6.283,66.096-18.272
				l-16.528-27.392c-45.458,27.288-104.43,12.558-131.718-32.9c-27.288-45.458-12.558-104.43,32.9-131.718
				c16.306-9.788,35.151-14.513,54.146-13.574c51.923,4.253,91.735,47.905,91.2,100v11.888c0,8.837-7.163,16-16,16s-16-7.163-16-16
				v-16c0.291-35.637-28.362-64.762-63.999-65.053s-64.762,28.362-65.053,63.999c-0.291,35.637,28.362,64.762,63.999,65.053
				c16.489,0.135,32.403-6.048,44.477-17.279c16.851,20.315,46.981,23.124,67.296,6.273c11.002-9.126,17.342-22.698,17.28-36.992
				v-11.888C513.162,286.755,459.646,228.683,390.4,224.185z M384,384.025c-17.673,0-32-14.327-32-32c0-17.673,14.327-32,32-32
				c17.673,0,32,14.327,32,32C416,369.698,401.673,384.025,384,384.025z"/>
		</g>
	</g>
</g>
<g>
</g>
<g>
</g>
<g>
</g>
<g>
</g>
<g>
</g>
<g>
</g>
<g>
</g>
<g>
</g>
<g>
</g>
<g>
</g>
<g>
</g>
<g>
</g>
<g>
</g>
<g>
</g>
<g>
</g>
</svg>
