<?xml version="1.0" encoding="iso-8859-1"?>
<!-- Generator: Adobe Illustrator 19.0.0, SVG Export Plug-In . SVG Version: 6.00 Build 0)  -->
<svg version="1.1" id="Capa_1" xmlns="http://www.w3.org/2000/svg" xmlns:xlink="http://www.w3.org/1999/xlink" x="0px" y="0px"
	 viewBox="0 0 512 512" style="enable-background:new 0 0 512 512;" xml:space="preserve">
<g>
	<g>
		<g>
			<path d="M448,0h-32v32h32c17.673,0,32,14.327,32,32v384c0,17.673-14.327,32-32,32H64c-17.673,0-32-14.327-32-32V64
				c0-17.673,14.327-32,32-32h192V0H64C28.654,0,0,28.654,0,64v384c0,35.346,28.654,64,64,64h384c35.346,0,64-28.654,64-64V64
				C512,28.654,483.346,0,448,0z"/>
			<path d="M80,448h96V224H80V448z M112,256h32v160h-32V256z"/>
			<path d="M304,243.2V224h-96v224h96v-96c0-8.837,7.163-16,16-16s16,7.163,16,16v96h96V307.472
				c-0.009-44.183-35.833-79.993-80.016-79.984c-14.988,0.003-29.674,4.216-42.384,12.16L304,243.2z M375.28,265.504v0.096
				c15.32,8.342,24.817,24.428,24.72,41.872V416h-32v-64c0-26.51-21.49-48-48-48c-26.51,0-48,21.49-48,48v64h-32V256h32v44.8
				l54.56-34.096C341.335,257.345,360.063,256.884,375.28,265.504z"/>
			<path d="M128,64c-35.346,0-64,28.654-64,64c0,35.346,28.654,64,64,64c35.346,0,64-28.654,64-64C192,92.654,163.346,64,128,64z
				 M128,160c-17.673,0-32-14.327-32-32s14.327-32,32-32s32,14.327,32,32S145.673,160,128,160z"/>
			<rect x="352" width="32" height="32"/>
			<rect x="288" width="32" height="32"/>
		</g>
	</g>
</g>
<g>
</g>
<g>
</g>
<g>
</g>
<g>
</g>
<g>
</g>
<g>
</g>
<g>
</g>
<g>
</g>
<g>
</g>
<g>
</g>
<g>
</g>
<g>
</g>
<g>
</g>
<g>
</g>
<g>
</g>
</svg>
