<svg xmlns="http://www.w3.org/2000/svg" width="500" height="500" style="width:100%;height:100%"><defs><mask id="c"><g display="block"><path fill="#0C0D3E" d="M127-92.5h-254v185h254v-185z" transform="translate(252.5 194)"/><path fill-opacity="0" stroke="#121331" d="M127-92.5h-254v185h254v-185z" transform="translate(252.5 194)"/></g></mask><mask id="b"><g display="block"><path fill="#0C0D3E" d="M127-92.5h-254v185h254v-185z" transform="translate(252.5 194)"/><path fill-opacity="0" stroke="#121331" d="M127-92.5h-254v185h254v-185z" transform="translate(252.5 194)"/></g></mask><clipPath id="a"><path d="M0 0h500v500H0z"/></clipPath></defs><g clip-path="url(#a)"><g display="block"><path stroke-linecap="round" stroke-linejoin="round" stroke="#AE0069" stroke-width="12.6" d="M428 93H73v230h355V93zM251 70.5v21M187 326l-62.5 91M316 325.5l65.5 91" fill="none"/><path stroke-linecap="round" stroke-linejoin="round" stroke="#939CDF" stroke-width="12.6" d="M125 296h251" fill="none"/></g><g mask="url(#b)" display="block"><path stroke-linecap="round" stroke-linejoin="round" stroke="#939CDF" stroke-width="12.6" d="M154.125 186.375L183 157.5V234M250.5 178.5V213m17.25-17.25h-34.5M300.125 186.375L329 157.5V234" fill="none"/></g><g mask="url(#c)" display="block"><path stroke-linecap="round" stroke-linejoin="round" stroke="#939CDF" stroke-width="12.6" d="M141.75 345.375c2.25-12.875 11.475-17.573 21.01-17.573 16.24 0 23.74 19.948 11.74 37.198-12.486 17.949-31.25 40.25-31.25 40.25L182 405M318.25 399c9.75 13.25 37 11.5 38.5-9.75 1.058-14.981-3-27-17-28-9.476-.677-21 3-21 3l3.25-35.875 29 .125" fill="none"/></g></g></svg>