<svg id="Button" xmlns="http://www.w3.org/2000/svg" width="915.348" height="715.943" viewBox="0 0 915.348 715.943">
  <g id="Group_3" data-name="Group 3" transform="translate(677.661 620.969) rotate(180)">
    <g id="Group_2" data-name="Group 2">
      <path id="Path_7" data-name="Path 7" d="M205.687,27.671l-370.733-.016A36.972,36.972,0,0,0-200.78-.016a36.949,36.949,0,0,0-36.907,36.91A36.949,36.949,0,0,0-200.78,73.8a36.973,36.973,0,0,0,35.743-27.7l370.724.016a9.224,9.224,0,0,0,0-18.447ZM-200.78,55.357A18.481,18.481,0,0,1-219.24,36.895,18.482,18.482,0,0,1-200.78,18.432a18.482,18.482,0,0,1,18.459,18.463A18.48,18.48,0,0,1-200.78,55.357Z"/>
    </g>
  </g>
  <g id="Group_5" data-name="Group 5" transform="translate(334.541 127.74) rotate(180)">
    <g id="Group_4" data-name="Group 4">
      <path id="Path_8" data-name="Path 8" d="M464.225,364.53a36.958,36.958,0,0,0-36.544,31.794L294.432,396.3a9.224,9.224,0,0,0,0,18.447l135.387.027a36.9,36.9,0,1,0,34.405-50.241Zm0,55.372a18.463,18.463,0,1,1,18.459-18.463A18.482,18.482,0,0,1,464.225,419.9Z" transform="translate(-278 -364.53)"/>
    </g>
  </g>
  <g id="Group_7" data-name="Group 7" transform="translate(444.302 593.298) rotate(180)">
    <g id="Group_6" data-name="Group 6">
      <path id="Path_9" data-name="Path 9" d="M262.224,30a9.224,9.224,0,1,0,9.224,9.224A9.239,9.239,0,0,0,262.224,30Z" transform="translate(-253 -30)"/>
    </g>
  </g>
  <g id="Group_9" data-name="Group 9" transform="translate(677.661 231.047) rotate(180)">
    <g id="Group_8" data-name="Group 8">
      <path id="Path_10" data-name="Path 10" d="M138.05,431.577a9.224,9.224,0,0,0-9.224,9.214v134.92H43.351V555.9A36.91,36.91,0,1,0,24.9,554.461v30.475a9.229,9.229,0,0,0,9.224,9.224H138.05a9.229,9.229,0,0,0,9.224-9.224V440.792A9.23,9.23,0,0,0,138.05,431.577Zm-119.6,87.989a18.459,18.459,0,1,1,18.459,18.462A18.482,18.482,0,0,1,18.447,519.567Z" transform="translate(0 -363.112)"/>
    </g>
  </g>
  <g id="Group_11" data-name="Group 11" transform="translate(548.834 199.486) rotate(180)">
    <g id="Group_10" data-name="Group 10">
      <path id="Path_11" data-name="Path 11" d="M148.894,397.33a9.224,9.224,0,1,0,9.224,9.224A9.232,9.232,0,0,0,148.894,397.33Z" transform="translate(-139.67 -397.33)"/>
    </g>
  </g>
  <path id="Path_12" data-name="Path 12" d="M640.754,223.305a36.965,36.965,0,0,0-35.845,28.14L297.74,252.728c8.175-8.287,15.811-17.755,20.183-27.671l242.186-1.969a9.225,9.225,0,0,0,9.224-9.224L567.427-22.322A36.975,36.975,0,0,0,595.11-58.064,36.95,36.95,0,0,0,558.2-94.974,36.949,36.949,0,0,0,521.3-58.064,36.974,36.974,0,0,0,548.98-22.322l1.906,226.963L321.679,206.61c-.778-22.936-14.839-39.226-36.363-43.127V92.236h37.512a9.225,9.225,0,0,0,9.224-9.224V46.134h67.514a36.91,36.91,0,1,0,0-18.447H322.828A9.224,9.224,0,0,0,313.6,36.91V73.789H285.315V40.28a9.224,9.224,0,1,0-18.447,0V163.233a48.215,48.215,0,0,0-20.6,8.649V100.033a9.225,9.225,0,0,0-9.224-9.224H202.4a36.909,36.909,0,1,0,0,18.447h25.422v65.532c-7.952-6.827-15.69,9.2-29.516,9.2-16.433,0-32.6-15-40.735-4.123H133.128V149.424A9.223,9.223,0,0,0,123.9,140.2H72.848a36.911,36.911,0,1,0-.452,18.448H114.68v30.438a9.225,9.225,0,0,0,9.224,9.224h25.73a55.269,55.269,0,0,0-.949,10.316,40,40,0,0,0,3.263,15.2H123.906a9.223,9.223,0,0,0-9.224,9.224v21.521l-183.509-.336a36.965,36.965,0,0,0-36.48-31.291,36.949,36.949,0,0,0-36.907,36.91,36.949,36.949,0,0,0,36.907,36.91,36.969,36.969,0,0,0,34.6-24.08l194.608.336a9.225,9.225,0,0,0,9.224-9.224V242.276h30.164a165.073,165.073,0,0,0,19.031,19.585v41.294H138.051a9.227,9.227,0,0,0-9.224,9.224v78.808a9.224,9.224,0,0,0,18.447,0V321.6h44.274a9.211,9.211,0,0,0,9.214-9.224V277.321c4.564,4.173,8.423.948,25.833,2.64v73.615H198.308a9.224,9.224,0,0,0-9.224,9.224v74.1a9.224,9.224,0,0,0,9.224,9.224l21.513.108a36.912,36.912,0,1,0-.8-18.449l-11.488-.108V372.021h28.286a9.224,9.224,0,0,0,9.224-9.224V279.961c16.238-18.3,24-2.355,27.654-5.283,1.337-1.07,2.8-2.246,4.355-3.5h31.941L308.7,492.169a9.224,9.224,0,0,0,18.447,0l.292-220.993,277.7-1.281a36.9,36.9,0,1,0,35.61-46.59ZM539.743-58.063A18.482,18.482,0,0,1,558.2-76.525a18.482,18.482,0,0,1,18.459,18.462A18.482,18.482,0,0,1,558.2-39.6,18.483,18.483,0,0,1,539.743-58.063ZM435.305,18.447A18.463,18.463,0,1,1,416.846,36.91,18.482,18.482,0,0,1,435.305,18.447ZM166.662,118.5a18.463,18.463,0,1,1,18.459-18.463A18.482,18.482,0,0,1,166.662,118.5ZM36.907,167.012A18.463,18.463,0,1,1,55.366,148.55,18.482,18.482,0,0,1,36.907,167.012ZM-105.306,278.317a18.482,18.482,0,0,1-18.459-18.463,18.482,18.482,0,0,1,18.459-18.462,18.482,18.482,0,0,1,18.459,18.462A18.482,18.482,0,0,1-105.306,278.317ZM255.12,416.987a18.462,18.462,0,1,1-18.459,18.461A18.481,18.481,0,0,1,255.12,416.987ZM195.4,181.026ZM640.754,278.68a18.463,18.463,0,1,1,18.459-18.462A18.482,18.482,0,0,1,640.754,278.68Z" transform="translate(677.661 620.969) rotate(180)"/>
  <circle id="Ellipse_1" data-name="Ellipse 1" cx="98.5" cy="98.5" r="98.5" transform="translate(539.12 479.718) rotate(180)"/>
  <g id="Group_15" data-name="Group 15" transform="translate(368.668 98.713) rotate(180)">
    <g id="Group_14" data-name="Group 14">
      <path id="Path_13" data-name="Path 13" d="M344.224,396a9.224,9.224,0,1,0,9.224,9.224A9.232,9.232,0,0,0,344.224,396Z" transform="translate(-335 -396)"/>
    </g>
  </g>
</svg>
