<?xml version="1.0" encoding="iso-8859-1"?>
<!-- Generator: Adobe Illustrator 19.0.0, SVG Export Plug-In . SVG Version: 6.00 Build 0)  -->
<svg version="1.1" id="Layer_1" xmlns="http://www.w3.org/2000/svg" xmlns:xlink="http://www.w3.org/1999/xlink" x="0px" y="0px"
	 viewBox="0 0 512 512" style="enable-background:new 0 0 512 512;" xml:space="preserve">
<g transform="translate(1 1)">
	<g>
		<g>
			<path d="M128.376,191.853c3.413-2.56,5.12-7.68,2.56-11.947c-7.68-13.653-11.947-29.013-11.947-44.373
				c0-46.933,38.4-85.333,85.333-85.333c1.707,0,2.56,0,4.267,0c2.56,0,5.12-0.853,6.827-2.56
				c16.213-20.48,40.107-31.573,65.707-31.573c25.6,0,49.493,11.093,66.56,30.72c1.707,2.56,4.267,3.413,6.827,3.413
				c1.707,0,2.56,0,4.267,0c46.933,0,85.333,38.4,85.333,85.333c0,12.8-3.413,25.6-8.533,36.693c-1.707,2.56-2.56,5.12-4.267,7.68
				c-2.56,4.267-1.707,9.387,2.56,11.947c0.853,0.853,2.56,0.853,4.267,0.853c3.413,0,5.973-1.707,6.827-5.12
				c1.707-2.56,3.413-5.12,5.12-8.533c6.827-13.653,10.24-28.16,10.24-43.52c0-56.32-46.08-102.4-103.253-102.4
				C338.296,11.8,310.136-1,281.122-1c-29.013,0-56.32,12.8-75.947,34.133c-0.853,0-0.853,0-0.853,0
				c-56.32,0-102.4,46.08-102.4,102.4c0,18.773,5.12,36.693,14.507,53.76C118.989,192.707,124.109,194.413,128.376,191.853z"/>
			<path d="M402.296,161.987c-2.56,4.267-1.707,9.387,2.56,11.947c0.853,0.853,2.56,0.853,4.267,0.853
				c2.56,0,5.973-1.707,6.827-4.267c1.707-1.707,2.56-4.267,3.413-5.973c4.267-8.533,6.827-18.773,6.827-29.013
				c0-37.547-30.72-68.267-68.267-68.267c-5.973,0-11.093,0.853-16.213,1.707c-11.947-21.333-35.84-35.84-60.587-35.84
				c-24.747,0-48.64,13.653-60.587,35.84c-5.12-0.853-10.24-1.707-16.213-1.707c-37.547,0-68.267,30.72-68.267,68.267
				c0,12.8,3.413,24.747,10.24,35.84c2.56,3.413,7.68,5.12,11.947,2.56c3.413-2.56,5.12-7.68,2.56-11.947
				c-5.12-7.68-7.68-17.067-7.68-26.453c0-28.16,23.04-51.2,51.2-51.2c5.12,0,9.387,0.853,15.36,2.56
				c0.853,0,1.707,0.853,2.56,0.853c2.56,0.853,5.973,0.853,8.533-0.853c1.707-1.707,2.56-3.413,3.413-5.12
				c0-0.853,0.853-2.56,0.853-2.56c8.533-17.92,26.453-29.013,46.08-29.013c19.627,0,37.547,11.093,47.787,28.16
				c0.853,1.707,0.853,2.56,1.707,4.267c1.707,4.267,5.973,5.973,10.24,4.267c0.853,0,2.56-0.853,3.413-0.853
				c4.267-0.853,9.387-1.707,14.507-1.707c28.16,0,51.2,23.04,51.2,51.2c0,7.68-1.707,15.36-5.12,22.187
				C404.003,159.427,403.149,160.28,402.296,161.987z"/>
			<path d="M416.802,203.8c-9.387,0-18.773,3.413-25.6,8.533v-68.267c0-23.893-18.773-42.667-42.667-42.667
				c-9.387,0-18.773,3.413-25.6,8.533c0-23.893-18.773-42.667-42.667-42.667c-23.893,0-42.667,18.773-42.667,42.667
				c-6.827-5.12-16.213-8.533-25.6-8.533c-23.893,0-42.667,18.773-42.667,42.667V252.44c-18.773-32.427-62.293-48.64-95.573-36.693
				c-4.267,0.853-7.68,3.413-11.947,5.973c-12.8,8.533-11.947,19.627-11.947,23.04c-0.853,4.267,0.853,6.827,11.093,16.213
				c15.36,15.36,46.933,46.933,67.413,83.627c1.707,1.707,24.747,39.253,50.347,67.413V434.2c0,44.373,35.84,76.8,85.333,76.8
				h85.333c34.987,0,74.24-20.48,82.773-58.027c2.56-10.24,5.12-17.92,8.533-21.333c8.533-10.24,18.773-34.133,18.773-65.707
				V246.467C459.469,222.573,440.696,203.8,416.802,203.8z M444.109,366.787c0,26.818-8.746,44.878-14.114,52.176
				c-0.441,0.203-0.862,0.442-1.246,0.73l-3.413,2.56c-8.533,6.827-11.093,8.533-27.307,12.8c-4.267,0.853-6.827,5.973-5.973,10.24
				c1.707,3.413,5.12,5.973,8.533,5.973c0.853,0,1.707,0,2.56,0c6.044-1.648,10.58-3.12,14.272-4.586
				c-0.215,0.946-0.423,1.902-0.619,2.879c-6.827,29.013-39.253,45.227-66.56,45.227h-85.333c-40.107,0-68.267-24.747-68.267-59.733
				v-8.579c1.67,1.209,3.366,2.363,5.12,3.459c5.12,4.267,9.387,6.827,14.507,11.093c1.707,0.853,3.413,1.707,5.12,1.707
				c2.56,0,5.12-0.853,5.973-3.413c3.413-3.413,2.56-8.533-0.853-11.947c-5.12-5.12-10.24-8.533-15.36-11.947
				c-5.973-4.267-11.947-8.533-17.92-13.653c-0.536-0.402-1.116-0.732-1.723-1.005c-24.659-26.393-47.771-63.849-47.771-63.849
				c-21.333-38.4-53.76-71.68-69.973-87.04c-2.56-2.56-4.267-4.267-5.973-5.973c0-2.56,0.853-4.267,5.973-7.68
				c3.413-1.707,5.973-3.413,8.533-4.267c22.187-7.68,58.88,2.56,75.093,30.72l13.191,19.786c0.109,0.523,0.26,1.041,0.462,1.547
				l8.533,17.067c1.707,3.413,4.267,5.12,7.68,5.12c1.707,0,2.56,0,3.413-1.707c3.413-1.707,5.12-6.827,3.413-11.093l-6.02-12.039
				c0.028-0.253,0.046-0.507,0.046-0.761V144.067c0-14.507,11.093-25.6,25.6-25.6s25.6,11.093,25.6,25.6v51.2c0,0,0,0.001,0,0.001
				v93.865c0,5.12,3.413,8.533,8.533,8.533s8.533-3.413,8.533-8.533v-93.867v-85.333c0-14.507,11.093-25.6,25.6-25.6
				s25.6,11.093,25.6,25.6v85.333V280.6c0,5.12,3.413,8.533,8.533,8.533s8.533-3.413,8.533-8.533v-85.333v-51.2
				c0-14.507,11.093-25.6,25.6-25.6c14.507,0,25.6,11.093,25.6,25.6v102.4v42.667c0,5.12,3.413,8.533,8.533,8.533
				s8.533-3.413,8.533-8.533v-42.667c0-14.507,11.093-25.6,25.6-25.6c14.507,0,25.6,11.093,25.6,25.6V366.787z"/>
		</g>
	</g>
</g>
<g>
</g>
<g>
</g>
<g>
</g>
<g>
</g>
<g>
</g>
<g>
</g>
<g>
</g>
<g>
</g>
<g>
</g>
<g>
</g>
<g>
</g>
<g>
</g>
<g>
</g>
<g>
</g>
<g>
</g>
</svg>
