<svg id="Standout" xmlns="http://www.w3.org/2000/svg" width="1001.424" height="283.536" viewBox="0 0 1001.424 583.536">
  <circle id="Ellipse_7" data-name="Ellipse 7" cx="39.077" cy="39.077" r="39.077" transform="translate(208.19 126.678) rotate(-22.514)" fill="#af0069"/>
  <g id="Standout-2" data-name="Standout">
    <g id="Standup" transform="translate(326.618)">
      <g id="arm-up" transform="translate(12.863 0)">
        <g id="Group_16" data-name="Group 16" transform="translate(12.137 0)">
          <circle id="Ellipse_2" data-name="Ellipse 2" cx="39.32" cy="39.32" r="39.32" transform="translate(103.983 12.594)" fill="#949cdf"/>
          <path id="Path_16" data-name="Path 16" d="M253.462,157.919c-8.473-18.377-19.272-35.84-35.388-48.466a20.038,20.038,0,0,0-5.363-2.954c-.12-.148-.194-.314-.314-.452-28.05-14.085-90.509-7.689-109.55-3.775l-.028.572C74.115,83.682,58.294,49.319,52.71,15.131,48.372-11.386,8.157-.1,12.459,26.226c8.565,52.408,39.32,100.662,87.961,122.334l-.3,5.769c.037,28.844.194,137.092.194,138.625l.766,162.41c0,12.433,10.356,22.5,23.121,22.5s23.13-10.079,23.13-22.5V297.992s-.212-7.772,7.91-7.679c8.132.074,8.861,8.058,8.861,8.058V455.788c0,12.424,10.365,22.5,23.13,22.5,12.783,0,21.866-10.088,21.866-22.5V304.7l-.074-23.961c18.063-11.593,32.111-28.3,42.19-47.2,5.575-10.384,15.174-24.865,15.174-37.224C266.384,183.716,258.547,168.912,253.462,157.919Zm-26.37,40.529c-2.474,5.52-4.993,11.048-8,16.3a156.43,156.43,0,0,1-10.19,15.645l-.194-76.526c8.971,12.479,15.193,27.071,19.484,41.747A26.126,26.126,0,0,1,227.092,198.447Zm1.551-4.43c-.018-1.929.388-1.9,0,0Z" transform="translate(-12.137 0)" fill="#949cdf"/>
        </g>
      </g>
      <g id="no-racism" transform="translate(163.309 90.03)">
        <path id="Path_17" data-name="Path 17" d="M145.609,153.795v-.037a58.489,58.489,0,0,1,17.7-41.967,45.908,45.908,0,0,0-16.773-3.192H45.315C20.412,108.6.122,128.58,0,153.089V291.607a18.854,18.854,0,1,0,37.708,0V153.184c.152-5.051,4.212-6.876,8.063-6.876-.057,98.872.065,224.951,0,323.828a22.635,22.635,0,0,0,45.27,0V289.288h9.769V470.136a22.624,22.624,0,0,0,22.626,22.625c11.7,0,22.174-8.83,22.174-22.625V153.795Z" fill="#af0069"/>
        <circle id="Ellipse_3" data-name="Ellipse 3" cx="39.077" cy="39.077" r="39.077" transform="translate(44.881 35.903) rotate(-22.514)" fill="#af0069"/>
        <path id="Path_18" data-name="Path 18" d="M305.432,153.795v-.037a58.467,58.467,0,0,1,17.155-41.437,45.586,45.586,0,0,0-16.227-2.979H205.138a45.508,45.508,0,0,0-28.86,10.28,44.408,44.408,0,0,0-16.455,34.21V292.35A18.853,18.853,0,0,0,173.4,310.442h0a18.847,18.847,0,0,0,24.13-18.092c.013-90.28.034-138.533.05-139.119.189-6.894,7.717-6.179,7.717-6.179V470.88a22.9,22.9,0,0,0,22.94,22.625,22.626,22.626,0,0,0,22.626-22.625V290.03h9.768V470.879A22.625,22.625,0,0,0,283.259,493.5c12.5,0,22.173-10.13,22.173-22.625,0,0,.265-173.554,0-317.047Z" fill="#af0069"/>
        <circle id="Ellipse_4" data-name="Ellipse 4" cx="39.077" cy="39.077" r="39.077" transform="matrix(1, -0.022, 0.022, 1, 215.889, 19.535)" fill="#af0069"/>
        <path id="Path_19" data-name="Path 19" d="M511.5,153.737c-.123-24.462-20.464-44.4-45.314-44.4H364.96a45.59,45.59,0,0,0-29.3,10.65,44.381,44.381,0,0,0-16.02,33.84V292.349a18.855,18.855,0,0,0,37.709,0V153.925c.018-3.5,3.939-6.875,7.99-6.875V470.878a22.672,22.672,0,0,0,45.343,0V290.03h9.769V470.879a22.672,22.672,0,0,0,45.343,0c-.03-38.833.022-271.875,0-323.828,4.1,0,7.972,3.412,7.989,6.781V292.35a18.855,18.855,0,0,0,37.709,0c0-11.959,0-120.736,0-138.613Z" fill="#af0069"/>
        <circle id="Ellipse_5" data-name="Ellipse 5" cx="39.077" cy="39.077" r="39.077" transform="translate(376.494 18.732)" fill="#af0069"/>
        <path id="Path_20" data-name="Path 20" d="M145.609,153.795v-.037a58.489,58.489,0,0,1,17.7-41.967,45.908,45.908,0,0,0-16.773-3.192H45.315C20.412,108.6.122,128.58,0,153.089V291.607a18.854,18.854,0,1,0,37.708,0V153.184c.152-5.051,4.212-6.876,8.063-6.876-.057,98.872.065,224.951,0,323.828a22.635,22.635,0,0,0,45.27,0V289.288h9.769V470.136a22.624,22.624,0,0,0,22.626,22.625c11.7,0,22.174-8.83,22.174-22.625V153.795Z" transform="translate(-163.309)" fill="#af0069"/>
        <circle id="Ellipse_6" data-name="Ellipse 6" cx="39.077" cy="39.077" r="39.077" transform="translate(-118.428 35.903) rotate(-22.514)" fill="#af0069"/>
      </g>
    </g>
    <path id="Path_21" data-name="Path 21" d="M145.609,153.795v-.037a58.489,58.489,0,0,1,17.7-41.967,45.908,45.908,0,0,0-16.773-3.192H45.315C20.412,108.6.122,128.58,0,153.089V291.607a18.854,18.854,0,1,0,37.708,0V153.184c.152-5.051,4.212-6.876,8.063-6.876-.057,98.872.065,224.951,0,323.828a22.635,22.635,0,0,0,45.27,0V289.288h9.769V470.136a22.624,22.624,0,0,0,22.626,22.625c11.7,0,22.174-8.83,22.174-22.625V153.795Z" transform="translate(163.309 90.775)" fill="#af0069"/>
    <path id="Path_22" data-name="Path 22" d="M145.609,153.795v-.037a58.489,58.489,0,0,1,17.7-41.967,45.908,45.908,0,0,0-16.773-3.192H45.315C20.412,108.6.122,128.58,0,153.089V291.607a18.854,18.854,0,1,0,37.708,0V153.184c.152-5.051,4.212-6.876,8.063-6.876-.057,98.872.065,224.951,0,323.828a22.635,22.635,0,0,0,45.27,0V289.288h9.769V470.136a22.624,22.624,0,0,0,22.626,22.625c11.7,0,22.174-8.83,22.174-22.625V153.795Z" transform="translate(0 90.775)" fill="#af0069"/>
  </g>
  <circle id="Ellipse_8" data-name="Ellipse 8" cx="39.077" cy="39.077" r="39.077" transform="translate(44.881 126.678) rotate(-22.514)" fill="#af0069"/>
</svg>
