<svg version="1.1" id="outline" xmlns="http://www.w3.org/2000/svg" xmlns:xlink="http://www.w3.org/1999/xlink" x="0px" y="0px"
	 viewBox="0 0 430 430" style="enable-background:new 0 0 430 430;" xml:space="preserve">
<style type="text/css">
	.st0{fill:#121331;}
	.st1{fill:none;stroke:#121331;stroke-width:12;stroke-miterlimit:10;}
	.st2{fill:#08A88A;}
	.st3{fill:none;stroke:#121331;stroke-width:12;stroke-linecap:round;stroke-linejoin:round;stroke-miterlimit:10;}
	.st4{fill:none;stroke:#08A88A;stroke-width:12;stroke-linecap:round;stroke-linejoin:round;stroke-miterlimit:10;}
</style>
<g>
	<path class="st0" d="M215.54,146.81h-1.08c-17.57,0-31.86-14.29-31.86-31.86V87.19c0-17.57,14.29-31.86,31.86-31.86h1.08
		c17.57,0,31.86,14.29,31.86,31.86v27.76C247.4,132.52,233.11,146.81,215.54,146.81z M214.45,67.33c-10.95,0-19.86,8.91-19.86,19.86
		v27.76c0,10.95,8.91,19.86,19.86,19.86h1.08c10.95,0,19.86-8.91,19.86-19.86V87.19c0-10.95-8.91-19.86-19.86-19.86H214.45z"/>
	<g>
		<path class="st0" d="M168.23,308.71c-3.31,0-6-2.69-6-6v-17.72c0-3.31,2.69-6,6-6s6,2.69,6,6v17.72
			C174.23,306.02,171.54,308.71,168.23,308.71z"/>
		<path class="st0" d="M261.76,309.04c-3.31,0-6-2.69-6-6v-18.05c0-3.31,2.69-6,6-6s6,2.69,6,6v18.05
			C267.76,306.35,265.07,309.04,261.76,309.04z"/>
		<g>
			<path class="st2" d="M261.76,290.99h-93.53c-1.6,0-3.13-0.64-4.26-1.78c-1.13-1.14-1.75-2.68-1.74-4.28l0.69-78.63
				c0.03-3.3,2.71-5.95,6-5.95c0.02,0,0.04,0,0.05,0c3.31,0.03,5.98,2.74,5.95,6.05l-0.64,72.58h81.42l-0.64-72.58
				c-0.03-3.31,2.63-6.02,5.95-6.05c0.02,0,0.04,0,0.05,0c3.29,0,5.97,2.65,6,5.95l0.69,78.63c0.01,1.6-0.61,3.14-1.74,4.28
				C264.89,290.35,263.36,290.99,261.76,290.99z"/>
			<path class="st2" d="M39.83,288.9c-2.54,0-4.86-1.62-5.69-4.11c-0.19-0.56-4.48-13.85,1.99-25.03c3.89-6.73,10.59-11.11,19.9-13
				l46.5-9.48c8.56-10.82,45.56-57.04,51.27-63.69c11.03-12.85,25.71-15.22,33.47-15.5c0.07,0,0.14,0,0.21,0l27.53-0.01c0,0,0,0,0,0
				c3.31,0,6,2.68,6,6c0,3.31-2.68,6-6,6l-27.42,0.01c-5.83,0.22-16.69,2-24.69,11.32c-5.66,6.59-46.79,57.94-52.28,65
				c-0.88,1.13-2.13,1.91-3.54,2.19l-48.65,9.92c-5.77,1.18-9.77,3.6-11.88,7.2c-1.9,3.24-2.15,7.06-1.93,10.08
				c23.34-4.77,68.14-13.92,70.42-14.43c0.2-0.05,0.39-0.09,0.59-0.11c2.12-0.3,3.95-1.31,5.15-2.85l43.4-55.74
				c2.04-2.61,5.81-3.08,8.42-1.05c2.61,2.04,3.08,5.81,1.05,8.42l-43.4,55.73c-3.11,4-7.69,6.61-12.9,7.36
				c-2.97,0.65-15.88,3.31-76.31,15.65C40.63,288.86,40.23,288.9,39.83,288.9z"/>
			<path class="st2" d="M390.17,288.9c-0.4,0-0.8-0.04-1.2-0.12c-60.44-12.34-73.34-15-76.31-15.65c-5.21-0.74-9.79-3.35-12.9-7.36
				l-43.4-55.72c-2.04-2.61-1.57-6.38,1.05-8.42c2.62-2.04,6.38-1.57,8.42,1.05l43.4,55.73c1.2,1.55,3.03,2.56,5.15,2.85
				c0.2,0.03,0.4,0.07,0.59,0.11c2.28,0.5,47.08,9.66,70.42,14.43c0.22-3.01-0.03-6.84-1.93-10.08c-2.11-3.6-6.1-6.02-11.88-7.2
				l-48.65-9.92c-1.4-0.29-2.66-1.06-3.54-2.19c-5.5-7.06-46.62-58.4-52.28-65c-8-9.32-18.86-11.1-24.69-11.32L215,170.07
				c-3.31,0-6-2.69-6-6c0-3.31,2.69-6,6-6c0,0,0,0,0,0l27.53,0.01c0.07,0,0.14,0,0.21,0c7.77,0.27,22.45,2.65,33.47,15.5
				c5.71,6.64,42.71,52.87,51.27,63.69l46.49,9.48c9.31,1.9,16.01,6.27,19.9,13c6.47,11.18,2.17,24.47,1.99,25.03
				C395.03,287.28,392.71,288.9,390.17,288.9z"/>
		</g>
	</g>
	<g>
		<path class="st0" d="M144.15,347.26c-0.53,0-1.08-0.07-1.61-0.22l-25.93-7.23c-0.08-0.02-0.16-0.05-0.24-0.07
			c-15-4.88-23.25-21.06-18.37-36.07c3.85-11.83,14.79-19.78,27.22-19.78c2.99,0,5.97,0.47,8.85,1.4l83.3,27.07
			c3.15,1.02,4.88,4.41,3.85,7.56c-1.02,3.15-4.41,4.88-7.56,3.85l-83.29-27.07c-1.67-0.54-3.41-0.82-5.15-0.82
			c-7.22,0-13.57,4.62-15.8,11.49c-2.82,8.68,1.92,18.04,10.56,20.91l25.8,7.19c3.19,0.89,5.06,4.2,4.17,7.39
			C149.19,345.52,146.78,347.26,144.15,347.26z"/>
		<path class="st0" d="M249.37,374.66c-6.12,0-12.44-1.01-18.72-3.04l-16.61-4.64c-0.15-0.04-0.31-0.08-0.45-0.13
			c-3.14-1.05-4.87-4.46-3.82-7.6c1.02-3.06,4.24-4.76,7.31-3.88c0.03,0.01,0.05,0.01,0.08,0.02l16.84,4.7
			c0.08,0.02,0.16,0.05,0.24,0.07c20.93,6.8,39.77-0.62,46.67-18.06c-0.04-0.28-0.06-0.56-0.06-0.85c0-3.31,2.68-6,5.99-6
			c0.67,0,1.34,0.11,1.97,0.33l0.25,0.09c1.58,0.53,2.9,1.67,3.65,3.15c0.77,1.51,0.9,3.28,0.37,4.88
			c-4.17,12.8-13.03,22.54-24.96,27.41C262.35,373.48,255.99,374.66,249.37,374.66z M281.73,339.84c0,0.01-0.01,0.02-0.01,0.02
			C281.72,339.85,281.73,339.84,281.73,339.84z"/>
		<path class="st0" d="M215.55,367.18c-3.31,0-6-2.68-6-5.99v-0.01c0-0.55,0.08-1.1,0.22-1.62c0.7-2.54,3.02-4.41,5.79-4.41l0,0
			c3.31,0,6,2.69,6,6c0,0.51-0.07,1.02-0.2,1.52C220.7,365.26,218.35,367.18,215.55,367.18z"/>
	</g>
	<g>
		<path class="st0" d="M181.62,374.66c-6.61,0-12.98-1.18-18.75-3.54c-11.94-4.88-20.81-14.62-24.97-27.44v0
			c-1.08-3.34,0.75-6.94,4.08-8.03l154.95-50.36c15.01-4.88,31.19,3.36,36.07,18.38c4.88,15.01-3.36,31.19-18.37,36.07
			c-0.08,0.03-0.16,0.05-0.24,0.07l-114.05,31.82C194.07,373.65,187.74,374.66,181.62,374.66z M151.45,345.2
			c3.46,6.86,8.9,11.94,15.96,14.82c8.53,3.48,18.95,3.54,29.34,0.16c0.08-0.03,0.16-0.05,0.24-0.07l114.04-31.81
			c8.65-2.88,13.38-12.23,10.56-20.91c-2.83-8.72-12.23-13.5-20.95-10.67L151.45,345.2z"/>
		<path class="st0" d="M215.45,367.19c-2.52,0-4.86-1.6-5.7-4.12l-12.85-38.92c-1.04-3.15,0.67-6.54,3.82-7.58
			c3.14-1.04,6.54,0.67,7.58,3.82l12.85,38.92c1.04,3.15-0.67,6.54-3.82,7.58C216.7,367.09,216.07,367.19,215.45,367.19z"/>
	</g>
</g>
</svg>
