<svg xmlns="http://www.w3.org/2000/svg" width="500" height="500" style="width:100%;height:100%"><defs><clipPath id="b"><path d="M0 0h500v500H0z"/></clipPath><filter id="a" filterUnits="objectBoundingBox" x="0%" y="0%" width="100%" height="100%"><feComponentTransfer in="SourceGraphic"><feFuncA type="table" tableValues="1.0 0.0"/></feComponentTransfer></filter><mask id="c"><g filter="url(#a)"><g display="block"><path fill="red" d="M-71.395 109.452c7.661 23.57 31.433 31.712 55.003 24.051l114.168-31.85c11.883-3.862 18.385-16.627 14.523-28.51-3.862-11.884-16.626-18.386-28.51-14.524l-154.943 50.36a.376.376 0 00-.241.473zM.448 128.808c-4.283-12.982-8.568-25.942-12.851-38.924" transform="translate(250 250)"/><path stroke-linecap="round" stroke-linejoin="round" fill-opacity="0" stroke="#121331" stroke-width="12" d="M178.605 359.452s0 0 0 0c7.661 23.57 31.433 31.712 55.003 24.051l114.168-31.85c11.883-3.862 18.385-16.627 14.523-28.51 0 0 0 0 0 0-3.862-11.884-16.626-18.386-28.51-14.524l-154.943 50.36a.376.376 0 00-.241.473zM250.448 378.808c-4.283-12.982-8.568-25.942-12.851-38.924"/></g></g></mask></defs><g clip-path="url(#b)"><g display="block"><path stroke-linecap="round" stroke-linejoin="round" stroke="#939CDF" stroke-width="12.6" d="M203.23 302.61l-.02 17.122M296.76 302.61l.01 18.122" fill="none"/><path stroke-linecap="round" stroke-linejoin="round" stroke="#AE0069" stroke-width="12.6" d="M203.836 226.48l-.606 76.13s0 0 0 0h93.53s0 0 0 0l-.774-76.13" fill="none"/><path stroke-linecap="round" stroke-linejoin="round" stroke="#AE0069" stroke-width="12.6" d="M203.916 223.977l-43.4 55.73c-2.229 2.87-5.54 4.62-9.06 5.11-.46.15-76.62 15.7-76.62 15.7s-8.31-25.017 17.39-30.259l48.65-9.92c4.818-6.189 46.574-58.359 52.464-65.22 8.686-10.118 20.552-13.108 29.134-13.412l27.526-.014M296.084 223.977l43.4 55.73c2.229 2.87 5.54 4.62 9.06 5.11.46.15 76.62 15.7 76.62 15.7s8.31-25.017-17.39-30.259l-48.65-9.92c-4.818-6.189-46.574-58.359-52.464-65.22-8.686-10.118-20.551-13.108-29.133-13.412L250 181.692" fill="none"/></g><g mask="url(#c)" display="block"><path stroke-linecap="round" stroke-linejoin="round" stroke="#939CDF" stroke-width="12.6" d="M322.395 359.452s0 0 0 0c-7.661 23.57-31.433 31.712-55.003 24.051l-114.168-31.85c-11.883-3.862-18.385-16.627-14.523-28.51 0 0 0 0 0 0 3.862-11.884 16.626-18.386 28.51-14.524l154.943 50.36a.376.376 0 01.241.473zM263.403 339.884c-4.283 12.982-8.568 25.942-12.851 38.924" fill="none"/></g><g display="block"><path stroke-linecap="round" stroke-linejoin="round" stroke="#939CDF" stroke-width="12.6" d="M178.605 359.452s0 0 0 0c7.661 23.57 31.433 31.712 55.003 24.051l114.168-31.85c11.883-3.862 18.385-16.627 14.523-28.51 0 0 0 0 0 0-3.862-11.884-16.626-18.386-28.51-14.524l-154.943 50.36a.376.376 0 00-.241.473zM250.448 378.808c-4.283-12.982-8.568-25.942-12.851-38.924" fill="none"/></g><path stroke-linecap="round" stroke-linejoin="round" stroke="#939CDF" stroke-width="12.6" d="M249.454 158.429h1.085c14.223 0 25.859-11.637 25.859-25.86v-27.762c0-14.223-11.636-25.86-25.859-25.86h-1.085c-14.223 0-25.86 11.637-25.86 25.86v27.762c0 14.223 11.637 25.86 25.86 25.86z" fill="none" display="block"/></g></svg>